<svg width="16" height="16" viewBox="0 0 16 16" fill="none" xmlns="http://www.w3.org/2000/svg">
<path d="M10.2437 2.29199L12.3843 5.99999H14.6663V7.33333H13.8883L13.3837 13.3887C13.3698 13.5553 13.2938 13.7106 13.1709 13.8238C13.0479 13.937 12.8868 13.9999 12.7197 14H3.27967C3.11251 13.9999 2.95147 13.937 2.82849 13.8238C2.70551 13.7106 2.62955 13.5553 2.61567 13.3887L2.11034 7.33333H1.33301V5.99999H3.61434L5.75567 2.29199L6.91034 2.95866L5.15434 5.99999H10.8443L9.08901 2.95866L10.2437 2.29199ZM12.5503 7.33333H3.44834L3.89301 12.6667H12.1057L12.5503 7.33333ZM8.66634 8.66666V11.3333H7.33301V8.66666H8.66634ZM5.99967 8.66666V11.3333H4.66634V8.66666H5.99967ZM11.333 8.66666V11.3333H9.99967V8.66666H11.333Z" fill="#131740"/>
</svg>
