<svg width="166" height="20" viewBox="0 0 166 20" fill="none" xmlns="http://www.w3.org/2000/svg">
<g clip-path="url(#clip0_1114_22389)">
<path d="M95.3208 4.00592L92.3936 19.6993H87.9512L92.0687 0.405273H98.5729L102.69 19.6964H98.248L95.3208 4.00297V4.00592Z" fill="#181818"/>
<path d="M108.176 5.56504C108.176 6.32416 108.696 6.8647 111.384 8.12301C115.696 10.1375 116.63 11.1565 116.63 14.3643C116.63 17.5721 114.246 20.0001 109.933 20.0001C107.095 20.0001 104.472 18.6562 103.128 16.2282L106.531 13.6495C107.225 15.0142 108.849 15.8826 110.084 15.8826C111.688 15.8826 112.231 15.342 112.231 14.388C112.231 13.3039 111.537 12.9997 109.044 11.8743C105.101 10.0961 103.843 8.55722 103.843 5.65366C103.843 2.44586 106.226 0.103516 110.128 0.103516C114.03 0.103516 115.699 2.03233 116.565 3.94047L113.227 6.21783C112.598 4.93884 111.688 4.17972 110.235 4.17972C108.781 4.17972 108.176 4.78525 108.176 5.568V5.56504Z" fill="#181818"/>
<path d="M122.981 5.56504C122.981 6.32416 123.5 6.8647 126.188 8.12301C130.501 10.1375 131.434 11.1565 131.434 14.3643C131.434 17.5721 129.051 20.0001 124.738 20.0001C121.9 20.0001 119.277 18.6562 117.933 16.2282L121.335 13.6495C122.029 15.0142 123.654 15.8826 124.889 15.8826C126.493 15.8826 127.033 15.342 127.033 14.388C127.033 13.3039 126.339 12.9997 123.846 11.8743C119.9 10.0961 118.644 8.55722 118.644 5.65366C118.644 2.44586 121.028 0.103516 124.93 0.103516C128.832 0.103516 130.501 2.03233 131.366 3.94047L128.029 6.21783C127.399 4.93884 126.49 4.17972 125.036 4.17972C123.583 4.17972 122.978 4.78525 122.978 5.568L122.981 5.56504Z" fill="#181818"/>
<path d="M135.77 19.6964L131.868 0.405273H136.42L139.022 15.2303L141.622 0.405273H146.173L142.271 19.6964H135.77Z" fill="#181818"/>
<path d="M147.691 19.6964V0.405273H152.243V19.6964H147.691Z" fill="#181818"/>
<path d="M154.627 0.405273H165.399V4.52579H158.963V7.92853H165.184V11.9604H158.963V15.5788H165.683V19.6964H154.63V0.405273H154.627Z" fill="#181818"/>
<path d="M82.304 0.405273H75.8028L73.8651 9.48517L71.9245 0.405273H65.4232L61.3057 19.6964H65.7481L68.6753 4.00592L71.5996 19.6964H71.6823H76.045H76.1277L79.0519 4.00592L81.9791 19.6964H86.4216L82.304 0.405273Z" fill="#181818"/>
<path d="M56.3311 0H51.357H47.0711H42.28L41.2314 4.27116H46.0431L42.2889 19.8996H46.501L50.3143 4.27116H55.315L56.3311 0Z" fill="#181818"/>
<path d="M28.6249 0L23.8428 19.8996H28.0549L29.9482 12.1341H36.7833L37.7994 7.97519H30.9643L31.8682 4.27116H39.6602L40.6734 0H28.6249Z" fill="#181818"/>
<path d="M53.1355 15.5371L52.0869 19.696H56.3994L57.4155 15.5371H53.1355Z" fill="#181818"/>
<path d="M4.28888 0.0117188L0 19.8581H6.91478L11.313 0.0117188H4.28888Z" fill="#181818"/>
<path d="M11.9863 19.8994H18.5142L15.3448 2.89453L11.9863 19.8994Z" fill="#181818"/>
<path d="M24.0708 0.0117188H19.1055L21.2056 11.9391L24.0708 0.0117188Z" fill="#181818"/>
</g>
<defs>
<clipPath id="clip0_1114_22389">
<rect width="165.683" height="20" fill="white"/>
</clipPath>
</defs>
</svg>
