<svg width="166" height="20" viewBox="0 0 166 20" fill="none" xmlns="http://www.w3.org/2000/svg">
<g clip-path="url(#clip0_1114_22328)">
<path d="M95.3208 4.00592L92.3936 19.6993H87.9512L92.0687 0.405273H98.5729L102.69 19.6964H98.248L95.3208 4.00297V4.00592Z" fill="white"/>
<path d="M108.175 5.56504C108.175 6.32416 108.695 6.8647 111.383 8.12301C115.695 10.1375 116.629 11.1565 116.629 14.3643C116.629 17.5721 114.245 20.0001 109.932 20.0001C107.094 20.0001 104.471 18.6562 103.127 16.2282L106.53 13.6495C107.224 15.0142 108.848 15.8826 110.083 15.8826C111.687 15.8826 112.23 15.342 112.23 14.388C112.23 13.3039 111.536 12.9997 109.043 11.8743C105.1 10.0961 103.842 8.55722 103.842 5.65366C103.842 2.44586 106.225 0.103516 110.127 0.103516C114.029 0.103516 115.698 2.03233 116.564 3.94047L113.226 6.21783C112.597 4.93884 111.687 4.17972 110.234 4.17972C108.78 4.17972 108.175 4.78525 108.175 5.568V5.56504Z" fill="white"/>
<path d="M122.98 5.56504C122.98 6.32416 123.499 6.8647 126.187 8.12301C130.5 10.1375 131.433 11.1565 131.433 14.3643C131.433 17.5721 129.05 20.0001 124.737 20.0001C121.899 20.0001 119.276 18.6562 117.932 16.2282L121.334 13.6495C122.029 15.0142 123.653 15.8826 124.888 15.8826C126.492 15.8826 127.032 15.342 127.032 14.388C127.032 13.3039 126.338 12.9997 123.845 11.8743C119.899 10.0961 118.643 8.55722 118.643 5.65366C118.643 2.44586 121.027 0.103516 124.929 0.103516C128.831 0.103516 130.5 2.03233 131.365 3.94047L128.028 6.21783C127.398 4.93884 126.489 4.17972 125.035 4.17972C123.582 4.17972 122.977 4.78525 122.977 5.568L122.98 5.56504Z" fill="white"/>
<path d="M135.769 19.6964L131.867 0.405273H136.419L139.021 15.2303L141.621 0.405273H146.172L142.27 19.6964H135.769V19.6964Z" fill="white"/>
<path d="M147.691 19.6964V0.405273H152.243V19.6964H147.691V19.6964Z" fill="white"/>
<path d="M154.627 0.405273H165.399V4.52579H158.963V7.92853H165.184V11.9604H158.963V15.5788H165.683V19.6964H154.63V0.405273H154.627Z" fill="white"/>
<path d="M82.3031 0.405273H75.8018L73.8641 9.48517L71.9235 0.405273H65.4222L61.3047 19.6964H65.7472L68.6744 4.00592L71.5986 19.6964H71.6813H76.044H76.1267L79.051 4.00592L81.9781 19.6964H86.4206L82.3031 0.405273Z" fill="white"/>
<path d="M56.3321 0H51.358H47.072H42.281L41.2324 4.27116H46.0441L42.2899 19.8996H46.502L50.3153 4.27116H55.316L56.3321 0Z" fill="white"/>
<path d="M28.6259 0L23.8438 19.8996H28.0558L29.9492 12.1341H36.7842L37.8003 7.97519H30.9653L31.8692 4.27116H39.6612L40.6744 0H28.6259Z" fill="white"/>
<path d="M53.1365 15.5371L52.0879 19.696H56.4004L57.4165 15.5371H53.1365Z" fill="white"/>
<path d="M4.28888 0.0117188L0 19.8581H6.91478L11.313 0.0117188H4.28888Z" fill="white"/>
<path d="M11.9863 19.8994H18.5142L15.3448 2.89453L11.9863 19.8994Z" fill="white"/>
<path d="M24.0708 0.0117188H19.1055L21.2056 11.9391L24.0708 0.0117188Z" fill="white"/>
</g>
<defs>
<clipPath id="clip0_1114_22328">
<rect width="165.683" height="20" fill="white"/>
</clipPath>
</defs>
</svg>
